<?xml version="1.0" encoding="utf-8"?>
<svg version="1.1" id="Capa_1" xmlns="http://www.w3.org/2000/svg" xmlns:xlink="http://www.w3.org/1999/xlink" x="0px" y="0px"
	 viewBox="0 0 2122 2122" style="enable-background:new 0 0 2122 2122;" xml:space="preserve">
<g>
	<path fill="#61892f" d="M837.48,1048.26c63.65,43.03,140.63,68.2,223.17,68.19c55.01,0,107.6-11.17,155.37-31.38
		c71.67-30.32,132.54-80.88,175.57-144.57c43.03-63.66,68.2-140.64,68.18-223.18c0-55.01-11.17-107.6-31.38-155.37
		c-30.32-71.67-80.88-132.54-144.56-175.57c-63.66-43.03-140.64-68.2-223.18-68.18c-55.01-0.01-107.59,11.17-155.36,31.38
		c-71.67,30.32-132.54,80.88-175.57,144.57c-43.03,63.66-68.2,140.64-68.18,223.18c0,55.01,11.17,107.6,31.38,155.37
		C723.24,944.36,773.8,1005.23,837.48,1048.26z M757.25,589.17c24.96-59.04,66.77-109.39,119.34-144.9
		c52.59-35.51,115.76-56.2,184.07-56.21c45.56,0,88.78,9.21,128.16,25.86c59.05,24.96,109.39,66.76,144.91,119.34
		c35.51,52.59,56.2,115.76,56.21,184.07c0,45.56-9.21,88.78-25.86,128.16c-24.97,59.05-66.77,109.39-119.34,144.9
		c-52.6,35.51-115.76,56.2-184.08,56.21c-45.56,0-88.78-9.21-128.15-25.86c-59.05-24.97-109.4-66.77-144.91-119.34
		c-35.51-52.59-56.2-115.76-56.21-184.07C731.39,671.77,740.6,628.55,757.25,589.17z"/>
	<path fill="#61892f" d="M1716.11,1766.5c-7.59-156.93-26.83-258.82-44.77-322.55c-17.94-63.71-34.63-89.3-37.19-92.99l-0.01,0.01
		c-29.28-46.03-67.68-82.09-110.16-109.86c-64.41-42.07-137.96-65.79-207.62-79.43c-69.69-13.6-135.7-17.02-185.51-17.02
		c-30.5,0-54.8,1.29-70.2,2.41c-15.4-1.12-39.7-2.41-70.2-2.41c-66.42,0.04-161.6,6.01-255.98,34.33
		c-47.18,14.2-94.23,34.06-137.14,62.12c-42.48,27.77-80.89,63.83-110.16,109.86l-0.01-0.01c-2.56,3.69-19.25,29.28-37.2,92.99
		c-17.94,63.73-37.18,165.62-44.77,322.55l-1.77,36.61h642.86h28.73h642.85L1716.11,1766.5z M1046.29,1733.27H477.02
		c8.39-131.74,25.3-217.6,40.18-270.38c8.11-28.77,15.59-47.74,20.73-59.03c2.56-5.65,4.54-9.39,5.72-11.47
		c0.59-1.05,0.98-1.69,1.14-1.94l0.02-0.04l0.19-0.27l0.41-0.66c23.38-37.07,54.25-66.39,90.18-89.92
		c53.79-35.27,119.05-56.93,182.75-69.34c63.67-12.44,125.56-15.73,172.12-15.72c30.13,0,53.85,1.35,67.55,2.39l2.64,0.2l2.64-0.2
		c13.7-1.04,37.42-2.39,67.55-2.39c62.07-0.05,151.43,5.91,235.86,31.37c42.22,12.69,83.13,30.19,119.02,53.68
		c35.93,23.53,66.8,52.85,90.17,89.92l0.41,0.66l0.2,0.28l0.07,0.12c1.54,2.48,15.56,26.11,30.91,84.8
		c13.98,53.48,29.05,136.07,36.81,257.94h-569.27H1046.29z"/>
</g>
</svg>
